# xmcd CD database file
#
# Track frame offsets:
#	150
#	16727
#	38637
#	55286
#
# Disc length: 1023 seconds
#
# Revision: 1
# Processed by: cddbd v1.5.1PL0 Copyright (c) Steve Scherf et al.
# Submitted via: CDex 1.50
#
DISCID=2503fd04
DTITLE=Nightmare - Cyan
DYEAR=2004
DGENRE=Rock
TTITLE0=Cyan
TTITLE1=Tsuki no Hikari Utsuronno Yume
TTITLE2=Happy Tomorrow (Original Karaoke)
TTITLE3=?????? (Original Karaoke)
EXTD=YEAR: 2004
EXTT0=
EXTT1=
EXTT2=
EXTT3=
PLAYORDER=
